<?xml version="1.0" encoding="utf-8"?>
<!-- Generator: Adobe Illustrator 23.0.3, SVG Export Plug-In . SVG Version: 6.00 Build 0)  -->
<svg version="1.1" id="Layer_1" xmlns="http://www.w3.org/2000/svg" xmlns:xlink="http://www.w3.org/1999/xlink" x="0px" y="0px"
	 viewBox="0 0 512 512" style="enable-background:new 0 0 512 512;" xml:space="preserve">
<style type="text/css">
	.st0{fill:#F8952C;}
</style>
<g id="outline">
	<path class="st0" d="M20.9,127.4c3,1.2,6.4,0.6,8.7-1.7c14.6-14.5,38.1-14.5,52.7,0c3.1,3.1,8.2,3.1,11.3,0c5-5,11.4-8.5,18.3-10
		V256H96v23.9c-4.2,0-8.3-1.6-11.3-4.6c-3-3-4.7-7.1-4.7-11.3v-8H64v8c0,17.7,14.3,32,32,32v16h96.4c12.6,0,24.1-7.5,29.2-19
		l10.4-23.3v191.9l-14.7,22c-2.4,3.7-1.4,8.6,2.3,11.1c1.3,0.9,2.8,1.3,4.4,1.3h128c4.4,0,8-3.6,8-8c0-1.6-0.5-3.1-1.3-4.4l-14.7-22
		V360h40V224c0-30.9-25.1-56-56-56h-8.2c5.3-6.9,8.2-15.3,8.2-24v-40c0-22.1-17.9-40-40-40h-48c-4.4,0-8,3.6-8,8v16
		c0,10.1,6.4,19.1,16,22.5V144c0,8.7,2.9,17.1,8.2,24h-9.3c-21.9,0-41.9,12.8-51,32.8L170.8,256H128V115.7c6.9,1.5,13.3,4.9,18.3,10
		c3.1,3.1,8.2,3.1,11.3,0c14.6-14.5,38.1-14.5,52.7,0c3.1,3.1,8.2,3.1,11.3,0c1.5-1.5,2.3-3.5,2.3-5.7c0-57.4-46.6-104-104-104
		S16,62.6,16,120C16,123.2,17.9,126.2,20.9,127.4z M296,480V352h-16v128h-41l7.7-11.6c0.9-1.3,1.3-2.9,1.3-4.4V328h80v136
		c0,1.6,0.5,3.1,1.3,4.4L337,480H296z M368,344h-24v-16h24V344z M256,96c-4.4,0-8-3.6-8-8v-8h40c10.2,0,19.2,6.4,22.6,16H256z
		 M312,112v32c0,13.3-10.7,24-24,24s-24-10.7-24-24v-32H312z M152,272h24c3.1,0,6-1.8,7.3-4.7l27.2-59.9
		c6.5-14.3,20.7-23.4,36.4-23.4H280v104h16V184h32c22.1,0,40,17.9,40,40v88h-24v-80h-16v80h-80v-80c0-4.4-3.6-8-8-8
		c-3.2,0-6,1.9-7.3,4.8L207,286.5c-2.6,5.8-8.3,9.5-14.6,9.5H152V272z M136,272v24h-24v-24H136z M120,32
		c42.3,0.1,78.6,30.2,86.5,71.7c-17.8-8.3-38.8-6.1-54.5,5.7c-19-14.2-45-14.2-64,0c-15.7-11.8-36.7-14-54.5-5.7
		C41.4,62.2,77.7,32.1,120,32z"/>
</g>
</svg>
