<?xml version="1.0" encoding="utf-8"?>
<!-- Generator: Adobe Illustrator 23.0.3, SVG Export Plug-In . SVG Version: 6.00 Build 0)  -->
<svg version="1.1" id="Layer_1" xmlns="http://www.w3.org/2000/svg" xmlns:xlink="http://www.w3.org/1999/xlink" x="0px" y="0px"
	 viewBox="0 0 512 512" style="enable-background:new 0 0 512 512;" xml:space="preserve">
<style type="text/css">
	.st0{fill:#FFFFFF;}
</style>
<g id="outline">
	<path class="st0" d="M488,144h-8v-24c0-4.4-3.6-8-8-8h-88V24c0-4.4-3.6-8-8-8H136c-4.4,0-8,3.6-8,8v88H40c-4.4,0-8,3.6-8,8v24h-8
		c-4.4,0-8,3.6-8,8v336c0,4.4,3.6,8,8,8h464c4.4,0,8-3.6,8-8V152C496,147.6,492.4,144,488,144z M128,480H32V160h96V480z M128,144H48
		v-16h80V144z M248,480h-64v-48h64V480z M328,480h-64v-48h64V480z M368,120v360h-24v-56c0-4.4-3.6-8-8-8H176c-4.4,0-8,3.6-8,8v56
		h-24V32h224V120z M384,128h80v16h-80V128z M480,480h-96V160h96V480z"/>
	<path class="st0" d="M237.8,200.7l15,6.7c2.1,0.9,4.4,0.9,6.5,0l15-6.7c37.5-16.7,61.7-54,61.8-95V80c0-4.4-3.6-8-8-8
		c-24.2-0.1-47.8-7.9-67.2-22.4c-2.8-2.1-6.8-2.1-9.6,0c-19.4,14.5-43,22.3-67.2,22.4c-4.4,0-8,3.6-8,8v25.6
		C176,146.7,200.2,183.9,237.8,200.7z M192,87.7c22.9-1.5,45-9.1,64-21.9c19,12.9,41.1,20.4,64,21.9v17.9
		c0,34.8-20.5,66.3-52.3,80.4l-11.7,5.2l-11.7-5.2c-31.8-14.1-52.2-45.7-52.3-80.4V87.7z"/>
	<rect x="248" y="88" class="st0" width="16" height="16"/>
	<rect x="272" y="144" class="st0" width="16" height="16"/>
	<rect x="208" y="104" class="st0" width="16" height="16"/>
	<rect x="288" y="104" class="st0" width="16" height="16"/>
	<rect x="224" y="144" class="st0" width="16" height="16"/>
	<path class="st0" d="M176,400h32c4.4,0,8-3.6,8-8v-32c0-4.4-3.6-8-8-8h-32c-4.4,0-8,3.6-8,8v32C168,396.4,171.6,400,176,400z
		 M184,368h16v16h-16V368z"/>
	<path class="st0" d="M272,352h-32c-4.4,0-8,3.6-8,8v32c0,4.4,3.6,8,8,8h32c4.4,0,8-3.6,8-8v-32C280,355.6,276.4,352,272,352z
		 M264,384h-16v-16h16V384z"/>
	<path class="st0" d="M336,352h-32c-4.4,0-8,3.6-8,8v32c0,4.4,3.6,8,8,8h32c4.4,0,8-3.6,8-8v-32C344,355.6,340.4,352,336,352z
		 M328,384h-16v-16h16V384z"/>
	<path class="st0" d="M176,336h32c4.4,0,8-3.6,8-8v-32c0-4.4-3.6-8-8-8h-32c-4.4,0-8,3.6-8,8v32C168,332.4,171.6,336,176,336z
		 M184,304h16v16h-16V304z"/>
	<path class="st0" d="M272,288h-32c-4.4,0-8,3.6-8,8v32c0,4.4,3.6,8,8,8h32c4.4,0,8-3.6,8-8v-32C280,291.6,276.4,288,272,288z
		 M264,320h-16v-16h16V320z"/>
	<path class="st0" d="M336,288h-32c-4.4,0-8,3.6-8,8v32c0,4.4,3.6,8,8,8h32c4.4,0,8-3.6,8-8v-32C344,291.6,340.4,288,336,288z
		 M328,320h-16v-16h16V320z"/>
	<path class="st0" d="M176,272h32c4.4,0,8-3.6,8-8v-32c0-4.4-3.6-8-8-8h-32c-4.4,0-8,3.6-8,8v32C168,268.4,171.6,272,176,272z
		 M184,240h16v16h-16V240z"/>
	<path class="st0" d="M272,224h-32c-4.4,0-8,3.6-8,8v32c0,4.4,3.6,8,8,8h32c4.4,0,8-3.6,8-8v-32C280,227.6,276.4,224,272,224z
		 M264,256h-16v-16h16V256z"/>
	<path class="st0" d="M304,224c-4.4,0-8,3.6-8,8v32c0,4.4,3.6,8,8,8h32c4.4,0,8-3.6,8-8v-32c0-4.4-3.6-8-8-8H304z M328,256h-16v-16
		h16V256z"/>
	<path class="st0" d="M64,400h32c4.4,0,8-3.6,8-8v-32c0-4.4-3.6-8-8-8H64c-4.4,0-8,3.6-8,8v32C56,396.4,59.6,400,64,400z M72,368h16
		v16H72V368z"/>
	<path class="st0" d="M64,336h32c4.4,0,8-3.6,8-8v-32c0-4.4-3.6-8-8-8H64c-4.4,0-8,3.6-8,8v32C56,332.4,59.6,336,64,336z M72,304h16
		v16H72V304z"/>
	<path class="st0" d="M64,272h32c4.4,0,8-3.6,8-8v-32c0-4.4-3.6-8-8-8H64c-4.4,0-8,3.6-8,8v32C56,268.4,59.6,272,64,272z M72,240h16
		v16H72V240z"/>
	<path class="st0" d="M448,352h-32c-4.4,0-8,3.6-8,8v32c0,4.4,3.6,8,8,8h32c4.4,0,8-3.6,8-8v-32C456,355.6,452.4,352,448,352z
		 M440,384h-16v-16h16V384z"/>
	<path class="st0" d="M448,288h-32c-4.4,0-8,3.6-8,8v32c0,4.4,3.6,8,8,8h32c4.4,0,8-3.6,8-8v-32C456,291.6,452.4,288,448,288z
		 M440,320h-16v-16h16V320z"/>
	<path class="st0" d="M448,224h-32c-4.4,0-8,3.6-8,8v32c0,4.4,3.6,8,8,8h32c4.4,0,8-3.6,8-8v-32C456,227.6,452.4,224,448,224z
		 M440,256h-16v-16h16V256z"/>
</g>
</svg>
