<?xml version="1.0" encoding="utf-8"?>
<!-- Generator: Adobe Illustrator 23.0.3, SVG Export Plug-In . SVG Version: 6.00 Build 0)  -->
<svg version="1.1" id="Layer_1" xmlns="http://www.w3.org/2000/svg" xmlns:xlink="http://www.w3.org/1999/xlink" x="0px" y="0px"
	 viewBox="0 0 512 512" style="enable-background:new 0 0 512 512;" xml:space="preserve">
<style type="text/css">
	.st0{fill:#FFFFFF;}
</style>
<g id="outline">
	<path class="st0" d="M468,184c-15.5,0-28,12.5-28,28v76.8c-10-11.6-27.5-13-39.1-3c-1.1,0.9-2.1,1.9-3,3L363,329.6
		c-31.4,16.3-51.1,48.7-51,84.1V464h16v-50.3c-0.1-29.9,16.8-57.2,43.6-70.5c1-0.5,1.8-1.1,2.5-2l36-41.9c4-4.7,11-5.5,16-1.8
		c5.2,3.9,6.3,11.3,2.4,16.5c-0.2,0.3-0.4,0.6-0.7,0.8l-41.8,48c-2.9,3.3-2.5,8.4,0.8,11.3s8.3,2.5,11.2-0.8l56-64
		c1.3-1.5,2-3.4,2-5.3v-92c0-6.6,5.4-12,12-12s12,5.4,12,12v110.2c0,7.5-2.1,14.8-6.1,21.2l-72.7,116.3l13.6,8.5l72.7-116.3
		c5.6-8.9,8.5-19.2,8.5-29.7V212C496,196.5,483.5,184,468,184z"/>
	<path class="st0" d="M97.2,468.2l13.6-8.5L38.1,343.4c-4-6.4-6.1-13.7-6.1-21.2V212c0-6.6,5.4-12,12-12s12,5.4,12,12v92
		c0,1.9,0.7,3.8,2,5.3l56,64c2.9,3.3,8,3.6,11.3,0.7s3.6-7.9,0.8-11.2l-41.8-48c-4.3-4.9-3.9-12.3,1-16.6c0.2-0.2,0.5-0.4,0.8-0.6
		c5-3.7,12-2.9,16,1.8l36,41.9c0.7,0.8,1.5,1.5,2.5,2c26.8,13.3,43.7,40.6,43.6,70.5V464h16v-50.3c0.1-35.4-19.6-67.8-51-84.1
		l-34.9-40.7c-9.5-11.1-26-12.9-37.7-4.1c-1.6,1.2-3.1,2.6-4.4,4.1V212c0-15.5-12.5-28-28-28s-28,12.5-28,28v110.2
		c0,10.5,2.9,20.8,8.5,29.7L97.2,468.2z"/>
	<path class="st0" d="M132.5,231.5L251,326.2c3,2.4,7.3,2.3,10.2-0.2l121-102.9c14.6-12.5,26-28.3,33.2-46.1l-14.8-5.9
		c-6.2,15.4-16.1,29.1-28.7,39.9l-116,98.5L142.5,219c-12.7-10.2-22.9-23.3-29.6-38.2l-14.6,6.5
		C106.1,204.5,117.8,219.6,132.5,231.5z"/>
	<path class="st0" d="M424,132.8c0-51.3-41.6-92.8-92.9-92.8c-24.6,0-48.2,9.8-65.7,27.2l-9.5,9.5l-9.5-9.5
		c-36.3-36.3-95-36.3-131.3,0C97.8,84.6,88,108.2,88,132.8v6c0,4.4,0.3,8.8,0.8,13.2H16v16h160c2.8,0,5.4-1.5,6.9-3.9l17-28.4
		l49.2,84.3c1.4,2.5,4.1,4,6.9,4h0.2c2.9-0.1,5.5-1.7,6.9-4.2l57.2-107.2L345,156c1.4,2.5,4.1,4,7,4h144v-16h-72.6
		C423.8,140.3,424,136.6,424,132.8z M407.3,144h-50.7l-29.7-52c-1.4-2.5-4.2-4.1-7.1-4c-2.9,0-5.6,1.7-6.9,4.2l-57.3,107.4
		L206.9,116c-1.4-2.5-4-4-6.9-4l0,0c-2.8,0-5.4,1.5-6.9,3.9L171.5,152H105c-0.6-4.4-0.9-8.8-1-13.2v-6c0-42.4,34.4-76.9,76.9-76.9
		c20.4,0,39.9,8.1,54.3,22.5l15.2,15.2c3.1,3.1,8.2,3.1,11.3,0l15.1-15.2c30-30,78.7-30,108.7,0c14.4,14.4,22.5,34,22.5,54.3
		C408,136.6,407.8,140.3,407.3,144z"/>
</g>
</svg>
