<?xml version="1.0" encoding="utf-8"?>
<!-- Generator: Adobe Illustrator 23.0.3, SVG Export Plug-In . SVG Version: 6.00 Build 0)  -->
<svg version="1.1" id="Layer_1" xmlns="http://www.w3.org/2000/svg" xmlns:xlink="http://www.w3.org/1999/xlink" x="0px" y="0px"
	 viewBox="0 0 512 512" style="enable-background:new 0 0 512 512;" xml:space="preserve">
<style type="text/css">
	.st0{fill:#F8952C;}
</style>
<g id="outline">
	<path class="st0" d="M48,88v138c0.1,95.5,51.7,183.6,135,230.3l69.1,38.7c2.4,1.4,5.4,1.4,7.8,0l69.1-38.7
		c83.3-46.7,135-134.8,135-230.3V88c0-4.4-3.6-8-8-8c-66.2,0.1-131-19.6-186.1-56.3l-9.5-6.3c-2.7-1.8-6.2-1.8-8.9,0l-9.5,6.3
		C187,60.4,122.2,80.1,56,80C51.6,80,48,83.6,48,88z M64,95.9C130.7,94.5,195.5,74,251,37l5-3.4l5,3.4c55.4,37,120.3,57.5,187,59
		v130c-0.1,89.8-48.5,172.5-126.8,216.4L256,478.8l-65.2-36.5C112.5,398.4,64.1,315.7,64,226V95.9z"/>
	<path class="st0" d="M198.6,428.4l53.4,29.9c2.4,1.4,5.4,1.4,7.8,0l53.4-29.9C386.6,387.3,432,309.9,432,226V118.6
		c0-4.2-3.2-7.6-7.3-8c-58.4-5-114.8-23.9-164.4-55.1c-2.6-1.6-5.9-1.6-8.5,0c-49.6,31.2-106,50.1-164.4,55.1
		c-4.2,0.4-7.3,3.8-7.3,8V226C80,309.9,125.4,387.3,198.6,428.4z M96,125.9c56.7-6,111.3-24.5,160-54.2
		c48.7,29.7,103.3,48.2,160,54.2v100c0,78.2-42.3,150.2-110.5,188.5L256,442.2l-49.5-27.8C138.3,376.2,96.1,304.1,96,226V125.9z"/>
	<path class="st0" d="M168,216v96c0,4.4,3.6,8,8,8h160c4.4,0,8-3.6,8-8v-96h16c4.4,0,8-3.6,8-8c0-2.6-1.3-5.1-3.4-6.6l-104-72
		c-2.7-1.9-6.4-1.9-9.1,0l-104,72c-3.6,2.5-4.5,7.5-2,11.1c1.5,2.2,3.9,3.4,6.6,3.4H168z M272,304h-32v-48h32V304z M256,145.7
		l78.6,54.4c-3.8,0.7-6.6,4-6.6,7.9v96h-40v-56c0-4.4-3.6-8-8-8h-48c-4.4,0-8,3.6-8,8v56h-40v-96c0-3.9-2.8-7.2-6.6-7.9L256,145.7z"
		/>
	<rect x="248" y="96" class="st0" width="16" height="16"/>
	<rect x="384" y="144" class="st0" width="16" height="16"/>
	<rect x="384" y="248" class="st0" width="16" height="16"/>
	<rect x="344" y="336" class="st0" width="16" height="16"/>
	<rect x="248" y="408" class="st0" width="16" height="16"/>
	<rect x="112" y="144" class="st0" width="16" height="16"/>
	<rect x="112" y="248" class="st0" width="16" height="16"/>
	<rect x="152" y="336" class="st0" width="16" height="16"/>
</g>
</svg>
