<?xml version="1.0" encoding="utf-8"?>
<!-- Generator: Adobe Illustrator 23.0.3, SVG Export Plug-In . SVG Version: 6.00 Build 0)  -->
<svg version="1.1" id="Layer_1" xmlns="http://www.w3.org/2000/svg" xmlns:xlink="http://www.w3.org/1999/xlink" x="0px" y="0px"
	 viewBox="0 0 512 512" style="enable-background:new 0 0 512 512;" xml:space="preserve">
<style type="text/css">
	.st0{fill:#FFFFFF;}
</style>
<g id="outline">
	<path class="st0" d="M336,392h-32c-4.4,0-8,3.6-8,8v48c0,4.4,3.6,8,8,8h32c4.4,0,8-3.6,8-8v-48C344,395.6,340.4,392,336,392z
		 M328,440h-16v-32h16V440z"/>
	<path class="st0" d="M416,392h-32c-4.4,0-8,3.6-8,8v48c0,4.4,3.6,8,8,8h32c4.4,0,8-3.6,8-8v-48C424,395.6,420.4,392,416,392z
		 M408,440h-16v-32h16V440z"/>
	<path class="st0" d="M176,456h32c4.4,0,8-3.6,8-8v-48c0-4.4-3.6-8-8-8h-32c-4.4,0-8,3.6-8,8v48C168,452.4,171.6,456,176,456z
		 M184,408h16v32h-16V408z"/>
	<path class="st0" d="M160.3,73.3l8,13.9c6-3.5,12.3-6.6,18.7-9.3l-6.2-14.7C173.8,66.1,166.9,69.5,160.3,73.3z"/>
	<path class="st0" d="M89.9,148.6l14.5,6.9c11.5-23.8,28.8-44.3,50.4-59.5l-9.3-13C121.7,99.7,102.6,122.3,89.9,148.6z"/>
	<path class="st0" d="M264,272v-60.2c27-20.6,64.7-19.7,90.7,2.2c3,2.7,7.6,2.7,10.6,0c27-22.8,66.4-22.8,93.4,0
		c3.3,2.9,8.4,2.6,11.3-0.7c1.3-1.5,2-3.4,2-5.3c0-105.9-96.9-192-216-192S40,102.1,40,208c0,4.4,3.6,8,8,8c2,0,3.8-0.7,5.3-2
		c27-22.8,66.4-22.8,93.4,0c3,2.7,7.6,2.7,10.6,0c26-21.9,63.7-22.8,90.7-2.2V240h-96c-0.9,0-1.9,0.2-2.7,0.5
		c-0.2,0.1-0.5,0.2-0.7,0.3c-0.7,0.3-1.3,0.7-1.8,1.2c-0.1,0.1-0.3,0.2-0.4,0.3l-104,104c-1.5,1.5-2.3,3.5-2.3,5.7v136
		c0,4.4,3.6,8,8,8h416c4.4,0,8-3.6,8-8V352c0-0.2-0.1-0.3-0.1-0.5c0-0.7-0.2-1.4-0.4-2.1c-0.1-0.3-0.2-0.5-0.3-0.8
		c-0.4-0.8-0.9-1.6-1.5-2.3l0,0l-104-104c-1.5-1.5-3.5-2.4-5.7-2.4h-72v16h68.7l88,88H259.3l-88-88H248v16L264,272L264,272z
		 M152,197.7c-28-20-65-22.2-95.2-5.7C66,102.4,151.8,32,256,32s190,70.4,199.2,160c-30.2-16.5-67.2-14.3-95.2,5.7
		c-31.1-22.2-72.9-22.2-104,0C224.9,175.5,183.1,175.5,152,197.7z M264,360h192v120H264V360z M136,480h-32v-72h32V480z M248,355.3
		V480h-96v-80c0-4.4-3.6-8-8-8H96c-4.4,0-8,3.6-8,8v80H56V355.3l96-96L248,355.3z"/>
</g>
</svg>
