<?xml version="1.0" encoding="utf-8"?>
<!-- Generator: Adobe Illustrator 23.0.3, SVG Export Plug-In . SVG Version: 6.00 Build 0)  -->
<svg version="1.1" id="Layer_1" xmlns="http://www.w3.org/2000/svg" xmlns:xlink="http://www.w3.org/1999/xlink" x="0px" y="0px"
	 viewBox="0 0 512 512" style="enable-background:new 0 0 512 512;" xml:space="preserve">
<style type="text/css">
	.st0{fill:#F8952C;}
</style>
<g id="outline">
	<path class="st0" d="M488,128h-30.5c-5.4-16.4-14.1-31.5-25.5-44.5V24c0-4.4-3.6-8-8-8c-20.8,0-39.9,11.6-49.5,30
		c-12.4-4-25.4-6-38.5-6h-80c-56.6,0.3-106.4,37.5-122.6,91.7c-6.4,6-16.5,5.7-22.5-0.7c-2.8-3-4.3-6.9-4.3-11v-8h-16v8
		c-0.1,17.5,13.9,31.9,31.5,32c3.8,0,7.7-0.6,11.3-2l11.9,1.7C153.4,96.9,200.5,56.2,256,56h80c13.7,0,27.2,2.5,39.9,7.4
		c4.1,1.6,8.8-0.5,10.3-4.6c0-0.1,0-0.1,0.1-0.2c4.7-13.2,15.9-23,29.7-25.8v53.8c0,2,0.8,3.9,2.1,5.4
		c12.1,13.1,20.9,28.9,25.7,46.1c1,3.5,4.1,5.9,7.7,5.9H480v48h-28.4c-3.6,0-6.8,2.4-7.7,5.9c-4.8,17.2-13.6,33-25.7,46.2
		c-1.4,1.5-2.1,3.4-2.1,5.4V304h-48v-18.4c0-4.4-3.6-8-8-8c-0.5,0-1.1,0.1-1.6,0.2c-2.5,0.5-5,0.9-7.5,1.3l1.1,7.9V312
		c0,4.4,3.6,8,8,8h64c4.4,0,8-3.6,8-8v-59.5c11.4-13,20.1-28.1,25.5-44.5H488c4.4,0,8-3.6,8-8v-64C496,131.6,492.4,128,488,128z"/>
	<path class="st0" d="M416,144c0-13.3-10.7-24-24-24s-24,10.7-24,24s10.7,24,24,24S416,157.3,416,144z M384,144c0-4.4,3.6-8,8-8
		s8,3.6,8,8s-3.6,8-8,8S384,148.4,384,144z"/>
	<rect x="256" y="72" class="st0" width="80" height="16"/>
	<path class="st0" d="M16,279.8c-0.1,81.8,45.2,157,117.7,195l38.6,20.3c2.3,1.2,5.1,1.2,7.5,0l38.6-20.3
		c72.5-38,117.8-113.1,117.7-195V208c0-4.4-3.6-8-8-8h-8c-50.2-0.1-99-16.4-139.2-46.4c-2.8-2.1-6.8-2.1-9.6,0
		c-40.2,30-89,46.3-139.2,46.4h-8c-4.4,0-8,3.6-8,8V279.8z M32,216c51.6-0.1,101.9-16.2,144-46.1c42.1,29.9,92.4,46,144,46.1v63.8
		c0.1,75.9-42,145.6-109.2,180.8L176,479l-34.8-18.3C74,425.4,31.9,355.7,32,279.8V216z"/>
	<path class="st0" d="M148.6,446.5l23.7,12.4c2.3,1.2,5.1,1.2,7.5,0l23.7-12.4c62-32.5,100.7-96.7,100.6-166.6v-40.9
		c0-4.2-3.1-7.6-7.3-8c-41.3-3.8-81.2-17.1-116.5-39c-2.6-1.6-5.9-1.6-8.4,0c-35.3,21.9-75.2,35.3-116.5,39c-4.1,0.4-7.3,3.8-7.3,8
		v40.9C47.9,349.8,86.7,414,148.6,446.5z M64,246.1c39.6-4.7,77.8-17.6,112-38c34.2,20.4,72.4,33.4,112,38v33.7
		c0.1,64-35.4,122.8-92.1,152.5L176,442.8l-19.9-10.5C99.4,402.6,63.9,343.8,64,279.8V246.1z"/>
	<rect x="168" y="232" class="st0" width="16" height="16"/>
	<rect x="80" y="264" class="st0" width="16" height="16"/>
	<rect x="256" y="264" class="st0" width="16" height="16"/>
	<rect x="96" y="336" class="st0" width="16" height="16"/>
	<rect x="240" y="336" class="st0" width="16" height="16"/>
	<rect x="168" y="400" class="st0" width="16" height="16"/>
</g>
</svg>
