<?xml version="1.0" encoding="utf-8"?>
<!-- Generator: Adobe Illustrator 23.0.3, SVG Export Plug-In . SVG Version: 6.00 Build 0)  -->
<svg version="1.1" id="Layer_1" xmlns="http://www.w3.org/2000/svg" xmlns:xlink="http://www.w3.org/1999/xlink" x="0px" y="0px"
	 viewBox="0 0 512 512" style="enable-background:new 0 0 512 512;" xml:space="preserve">
<style type="text/css">
	.st0{fill:#FFFFFF;}
</style>
<g id="outline">
	<path class="st0" d="M488,120h-32c-3,0-5.8,1.7-7.2,4.4L411.1,200h-79.8l60.3-173.4c1.4-4.2-0.8-8.7-4.9-10.2
		c-0.8-0.3-1.7-0.4-2.6-0.4h-48c-2.6,0-5.1,1.3-6.6,3.4L315.1,40H272c-17.6,0.1-31.9,14.4-31.8,32.1c0.1,17,13.5,31,30.5,31.8
		L259.5,120H224v16h24.3L226,168h-2c-1.8,0-3.6-0.3-5.3-0.9l-5.3,15.1c0.8,0.3,1.6,0.4,2.4,0.6l-12,17.2H192v16h288v16h-56
		c-4.4,0-8,3.6-8,8c0,1.1,0.2,2.2,0.7,3.2l8.2,18.4L326.6,296H49.5c-9.7,0-17.5-7.8-17.5-17.5c0-6.2,3.3-11.9,8.5-15.1l27.6-16.6
		c0.9-0.5,1.7-1.2,2.3-2.1l6-8l-12.8-9.6l-5.1,6.7l-26.3,15.8c-15.9,9.5-21,30.1-11.5,46c6.1,10.1,17,16.3,28.7,16.3h154.3l12,17.2
		c-17,4.5-27.2,22-22.7,39.1c3.7,14,16.4,23.7,30.8,23.7h35.5l11.2,16.1c-17.6,0.8-31.3,15.7-30.5,33.3c0.8,17,14.8,30.5,31.8,30.5
		h43.1l14.3,20.6c1.5,2.2,3.9,3.4,6.6,3.4h48c4.4,0,8-3.6,8-8c0-0.9-0.2-1.8-0.4-2.6l-60.5-174l100.3-35.1l17.3,38.9
		c1.3,2.9,4.1,4.8,7.3,4.8h32c4.4,0,8-3.6,8-8V128C496,123.6,492.4,120,488,120z M256,72c0-8.8,7.2-16,16-16h32l-22.3,32H272
		C263.2,88,256,80.8,256,72z M314.3,200h-91L340.2,32h32.6L314.3,200z M224,376c-8.8,0-16-7.2-16-16s7.2-16,16-16h2.1l22.3,32H224z
		 M272,456c-8.8,0-16-7.2-16-16s7.2-16,16-16h9.7l22.3,32H272z M372.7,480h-32.6L223.3,312h91L372.7,480z M480,304h-18.8l-24.9-56
		H480V304z M480,200h-51.1l32-64H480V200z"/>
	<rect x="136" y="240" class="st0" width="16" height="16"/>
	<rect x="168" y="240" class="st0" width="16" height="16"/>
	<rect x="200" y="240" class="st0" width="16" height="16"/>
	<rect x="232" y="240" class="st0" width="16" height="16"/>
	<rect x="264" y="240" class="st0" width="16" height="16"/>
	<rect x="296" y="240" class="st0" width="16" height="16"/>
	<rect x="328" y="240" class="st0" width="16" height="16"/>
	<path class="st0" d="M70.2,218.3l38,20.7c2.4,1.3,5.3,1.3,7.7,0l38-20.7c33.4-18.2,54.2-53.2,54.2-91.3V56c0-4.4-3.6-8-8-8
		c-29.3,0-57.6-10-80.5-28.2l-2.5-2c-2.9-2.3-7.1-2.3-10,0l-2.5,2C81.6,38,53.3,48,24,48c-4.4,0-8,3.6-8,8v71
		C16,165.1,36.8,200.1,70.2,218.3z M32,63.8c29-1.6,56.9-12,80-29.6c23.1,17.6,51,28,80,29.6V127c0,32.2-17.6,61.8-45.9,77.3
		L112,222.9l-34.1-18.6C49.6,188.8,32,159.2,32,127V63.8z"/>
	<path class="st0" d="M85.5,190.2l22.6,12.4c2.4,1.3,5.3,1.3,7.7,0l22.6-12.4c23.1-12.6,37.5-36.9,37.5-63.2V84.9
		c0-3.8-2.7-7.1-6.5-7.8c-18.9-3.7-36.9-10.6-53.4-20.7c-2.6-1.6-5.8-1.6-8.3,0c-16.4,10-34.5,17-53.4,20.7c-3.8,0.7-6.5,4-6.5,7.8
		V127C48,153.4,62.4,177.6,85.5,190.2z M64,91.4c16.8-3.9,33-10.3,48-18.9c15,8.6,31.2,15,48,18.9V127c0,20.5-11.2,39.3-29.2,49.2
		L112,186.4l-18.8-10.3l0,0C75.2,166.4,64,147.5,64,127V91.4z"/>
	<rect x="104" y="152" class="st0" width="16" height="16"/>
	<rect x="80" y="104" class="st0" width="16" height="16"/>
	<rect x="128" y="104" class="st0" width="16" height="16"/>
</g>
</svg>
