<?xml version="1.0" encoding="utf-8"?>
<!-- Generator: Adobe Illustrator 23.0.3, SVG Export Plug-In . SVG Version: 6.00 Build 0)  -->
<svg version="1.1" id="Layer_1" xmlns="http://www.w3.org/2000/svg" xmlns:xlink="http://www.w3.org/1999/xlink" x="0px" y="0px"
	 viewBox="0 0 512 512" style="enable-background:new 0 0 512 512;" xml:space="preserve">
<style type="text/css">
	.st0{fill:#FFFFFF;}
</style>
<g id="outline">
	<path class="st0" d="M447.9,231.8l16,0.4c0-2.1,0.1-4.2,0.1-6.3V88c0-4.4-3.6-8-8-8c-66.2,0-131-19.6-186.1-56.3l-9.4-6.3
		c-2.7-1.8-6.2-1.8-8.9,0l-9.4,6.3c-27.4,18.2-57.4,32.4-88.9,41.9C121.7,75.1,88.9,80,56,80c-4.4,0-8,3.6-8,8v144h16V95.9
		c31.8-0.7,63.4-5.8,93.8-15c33-10,64.4-24.9,93.2-44l5-3.3l5,3.4c55.5,37,120.3,57.5,187,59v130C448,227.9,448,229.8,447.9,231.8z"
		/>
	<path class="st0" d="M321.2,442.3L256,478.8l-65.2-36.5c-22.6-12.7-43-28.8-60.6-47.7l-11.8,10.9c18.7,20.2,40.5,37.4,64.6,50.8
		l69.1,38.7c2.4,1.4,5.4,1.4,7.8,0l69.1-38.7c22.4-12.5,42.9-28.3,60.7-46.8l-11.5-11.1C361.5,415.7,342.3,430.5,321.2,442.3z"/>
	<path class="st0" d="M146.3,388.3c15.4,15.8,33.1,29.3,52.4,40l53.4,30c2.4,1.4,5.4,1.4,7.8,0l53.4-30c15.9-8.9,30.7-19.6,44.1-32
		l-10.9-11.7c-12.5,11.5-26.2,21.5-41,29.8L256,442.2l-49.5-27.8c-18-10-34.4-22.6-48.7-37.3L146.3,388.3z"/>
	<path class="st0" d="M415.9,231.8l16,0.4c0.1-2.1,0.1-4.2,0.1-6.3V118.6c0-4.2-3.2-7.6-7.3-8c-58.4-5-114.8-23.9-164.4-55.1
		c-2.6-1.6-5.9-1.6-8.5,0c-49.6,31.2-106,50.1-164.4,55.1c-4.2,0.4-7.3,3.8-7.3,8v107.2c0,2.1,0,4.2,0.1,6.3l16-0.4
		c-0.1-2-0.1-3.9-0.1-5.9v-100c56.7-6,111.3-24.5,160-54.2c48.7,29.7,103.3,48.2,160,54.2v100C416,227.9,416,229.8,415.9,231.8z"/>
	<rect x="248" y="96" class="st0" width="16" height="16"/>
	<rect x="112" y="136" class="st0" width="16" height="16"/>
	<rect x="384" y="136" class="st0" width="16" height="16"/>
	<rect x="112" y="200" class="st0" width="16" height="16"/>
	<rect x="248" y="400" class="st0" width="16" height="16"/>
	<path class="st0" d="M456,248h-44.2l-25.6-32H400v-16h-16v13.2L359.8,183c-7.6-9.5-19.1-15-31.2-15H191.4c-12.1,0-23.6,5.5-31.2,15
		l-52,65H56c-22.1,0-40,17.9-40,40v64c0,4.4,3.6,8,8,8h26.8c8.8,25,36.2,38.1,61.1,29.3c13.7-4.8,24.5-15.6,29.3-29.3h213.6
		c8.8,25,36.2,38.1,61.1,29.3c13.7-4.8,24.5-15.6,29.3-29.3H488c4.4,0,8-3.6,8-8v-64C496,265.9,478.1,248,456,248z M264,184h64.6
		c7.3,0,14.2,3.3,18.7,9l44,55H264V184z M96,376c-17.7,0-32-14.3-32-32s14.3-32,32-32s32,14.3,32,32S113.7,376,96,376z M248,344H144
		c0-26.5-21.5-48-48-48s-48,21.5-48,48H32v-56c0-13.3,10.7-24,24-24h192V344z M248,248H128.6l44-55c4.5-5.7,11.4-9,18.7-9H248V248z
		 M400,376c-17.7,0-32-14.3-32-32s14.3-32,32-32s32,14.3,32,32S417.7,376,400,376z M480,344h-32c0-26.5-21.5-48-48-48
		s-48,21.5-48,48h-88v-80h192c13.3,0,24,10.7,24,24V344z"/>
	<circle class="st0" cx="96" cy="344" r="16"/>
	<circle class="st0" cx="400" cy="344" r="16"/>
	<rect x="200" y="280" class="st0" width="32" height="16"/>
	<rect x="328" y="280" class="st0" width="32" height="16"/>
	<rect x="184" y="120" class="st0" width="16" height="16"/>
	<rect x="312" y="120" class="st0" width="16" height="16"/>
	<rect x="192" y="376" class="st0" width="16" height="16"/>
	<rect x="304" y="376" class="st0" width="16" height="16"/>
</g>
</svg>
