<svg width="512" height="512" viewBox="0 0 512 512" fill="none" xmlns="http://www.w3.org/2000/svg">
<path d="M477.083 440.502C496.336 440.502 512 424.838 512 405.584V50C512 22.43 489.57 0 462 0H50C22.43 0 0 22.43 0 50V405.584C0 424.838 15.664 440.502 34.917 440.502H46V492H10C4.477 492 0 496.478 0 502C0 507.522 4.477 512 10 512H502C507.523 512 512 507.522 512 502C512 496.478 507.523 492 502 492H466V440.502H477.083ZM20 50C20 33.458 33.458 20 50 20H462C478.542 20 492 33.458 492 50V72H21.004C20.665 72 20.33 72.018 20 72.051V50ZM110 492H66V402H110V492ZM222 492H178V291.432H222V492ZM334 492H290V376H334V492ZM456 256.5H392C386.477 256.5 382 260.978 382 266.5V316.999C382 322.521 386.477 326.999 392 326.999C397.523 326.999 402 322.521 402 316.999V276.5H446V492H402V384.25C402 378.728 397.523 374.25 392 374.25C386.477 374.25 382 378.728 382 384.25V492H354V366C354 360.478 349.523 356 344 356H280C274.477 356 270 360.478 270 366V492H242V281.432C242 275.91 237.523 271.432 232 271.432H168C162.477 271.432 158 275.91 158 281.432V492H130V392C130 386.478 125.523 382 120 382H56C50.477 382 46 386.478 46 392V420.502H34.917C26.691 420.502 20 413.81 20 405.584V91.949C20.33 91.982 20.665 92 21.004 92H492V405.584C492 413.81 485.308 420.502 477.083 420.502H466V266.5C466 260.978 461.523 256.5 456 256.5Z" fill="#3482CA"/>
<path d="M448 36H222.065C216.542 36 212.065 40.478 212.065 46C212.065 51.522 216.542 56 222.065 56H448C453.523 56 458 51.522 458 46C458 40.478 453.523 36 448 36Z" fill="#3482CA"/>
<path d="M111.07 38.93C109.21 37.07 106.63 36 104 36C101.37 36 98.79 37.069 96.93 38.93C95.07 40.79 94 43.37 94 46C94 48.63 95.07 51.21 96.93 53.069C98.79 54.93 101.37 56 104 56C106.63 56 109.21 54.93 111.07 53.069C112.93 51.21 114 48.63 114 46C114 43.37 112.93 40.79 111.07 38.93Z" fill="#3482CA"/>
<path d="M71.07 38.93C69.21 37.07 66.63 36 64 36C61.37 36 58.79 37.069 56.93 38.93C55.07 40.79 54 43.37 54 46C54 48.63 55.07 51.21 56.93 53.069C58.79 54.93 61.37 56 64 56C66.63 56 69.21 54.93 71.07 53.069C72.93 51.21 74 48.63 74 46C74 43.37 72.93 40.79 71.07 38.93Z" fill="#3482CA"/>
<path d="M151.07 38.93C149.21 37.07 146.64 36 144 36C141.37 36 138.79 37.069 136.93 38.93C135.07 40.79 134 43.37 134 46C134 48.63 135.07 51.21 136.93 53.069C138.79 54.93 141.37 56 144 56C146.63 56 149.21 54.93 151.07 53.069C152.93 51.21 154 48.63 154 46C154 43.37 152.93 40.79 151.07 38.93Z" fill="#3482CA"/>
<path d="M399.07 345.57C397.21 343.7 394.63 342.64 392 342.64C389.37 342.64 386.79 343.701 384.93 345.57C383.07 347.43 382 350.01 382 352.64C382 355.27 383.07 357.85 384.93 359.71C386.79 361.569 389.37 362.64 392 362.64C394.63 362.64 397.21 361.57 399.07 359.71C400.93 357.85 402 355.27 402 352.64C402 350 400.93 347.43 399.07 345.57Z" fill="#3482CA"/>
<path d="M424 135.939C404.149 135.939 388 152.088 388 171.939C388 179.824 390.555 187.12 394.871 193.057L328.446 259.482C323.291 256.629 317.369 254.999 311.071 254.999C305.396 254.999 300.026 256.324 295.247 258.673L225.888 189.314C228.741 184.159 230.371 178.237 230.371 171.939C230.371 152.088 214.222 135.939 194.371 135.939C174.52 135.939 158.371 152.088 158.371 171.939C158.371 178.877 160.349 185.359 163.763 190.861L104.71 249.913C99.555 247.06 93.633 245.43 87.336 245.43C67.485 245.43 51.336 261.579 51.336 281.43C51.336 301.281 67.485 317.43 87.336 317.43C107.187 317.43 123.336 301.281 123.336 281.43C123.336 275.132 121.706 269.21 118.853 264.055L178.611 204.297C183.374 206.626 188.722 207.938 194.371 207.938C200.668 207.938 206.59 206.308 211.745 203.455L280.425 272.134C277.034 277.624 275.071 284.084 275.071 290.997C275.071 310.848 291.22 326.997 311.071 326.997C330.922 326.997 347.071 310.848 347.071 290.997C347.071 284.699 345.441 278.777 342.588 273.622L410.793 205.417C414.886 207.039 419.339 207.939 424 207.939C443.851 207.939 460 191.79 460 171.939C460 152.088 443.851 135.939 424 135.939ZM87.337 297.432C78.515 297.432 71.337 290.254 71.337 281.432C71.337 272.61 78.515 265.432 87.337 265.432C96.159 265.432 103.337 272.61 103.337 281.432C103.337 290.254 96.159 297.432 87.337 297.432ZM194.372 187.939C185.55 187.939 178.372 180.761 178.372 171.939C178.372 163.117 185.55 155.939 194.372 155.939C203.194 155.939 210.372 163.117 210.372 171.939C210.372 180.761 203.194 187.939 194.372 187.939ZM311.072 306.999C302.25 306.999 295.072 299.821 295.072 290.999C295.072 282.177 302.25 274.999 311.072 274.999C319.894 274.999 327.072 282.177 327.072 290.999C327.072 299.821 319.894 306.999 311.072 306.999ZM424 187.939C415.178 187.939 408 180.761 408 171.939C408 163.117 415.178 155.939 424 155.939C432.822 155.939 440 163.117 440 171.939C440 180.761 432.822 187.939 424 187.939Z" fill="#3482CA"/>
<path d="M148.33 128.951C146.46 127.091 143.89 126.02 141.26 126.02C138.62 126.02 136.04 127.09 134.18 128.951C132.32 130.81 131.26 133.39 131.26 136.02C131.26 138.65 132.32 141.23 134.18 143.09C136.05 144.95 138.62 146.02 141.26 146.02C143.89 146.02 146.46 144.951 148.33 143.09C150.19 141.23 151.26 138.65 151.26 136.02C151.26 133.39 150.19 130.81 148.33 128.951Z" fill="#3482CA"/>
<path d="M104 126.021H56C50.477 126.021 46 130.499 46 136.021C46 141.543 50.477 146.021 56 146.021H104C109.523 146.021 114 141.543 114 136.021C114 130.499 109.523 126.021 104 126.021Z" fill="#3482CA"/>
<path d="M104 174.021H56C50.477 174.021 46 178.499 46 184.021C46 189.543 50.477 194.021 56 194.021H104C109.523 194.021 114 189.543 114 184.021C114 178.499 109.523 174.021 104 174.021Z" fill="#3482CA"/>
</svg>
