<svg width="25" height="25" viewBox="0 0 25 25" fill="none" xmlns="http://www.w3.org/2000/svg">
<path d="M1.71722 18.7256C2.84652 20.6817 6.0889 20.3364 8.28983 19.7854C8.90736 21.9661 10.2326 25 12.5002 25C14.7679 25 16.0931 21.9661 16.7106 19.7854C18.9067 20.3352 22.1566 20.6771 23.2832 18.7256C24.4135 16.768 22.4831 14.1236 20.9113 12.5C22.4856 10.8737 24.4128 8.23076 23.2832 6.27441C22.154 4.31831 18.9027 4.66582 16.7106 5.21455C16.0931 3.03398 14.7679 0 12.5002 0C10.2326 0 8.90736 3.03389 8.28983 5.21455C6.09852 4.66602 2.84661 4.31807 1.71722 6.27441C0.586995 8.23198 2.51732 10.8763 4.08914 12.5C2.51483 14.1263 0.587678 16.7692 1.71722 18.7256V18.7256ZM2.98582 17.9932C2.29632 16.7989 4.17889 14.513 5.14564 13.514C5.85853 14.1526 6.65023 14.7807 7.5036 15.3843C7.59925 16.4248 7.74666 17.4249 7.94232 18.3629C6.59788 18.6994 3.67552 19.1879 2.98582 17.9932V17.9932ZM10.6692 9.32852C11.2787 8.97656 11.8911 8.65059 12.5002 8.3521C13.1094 8.65054 13.7217 8.97656 14.3313 9.32852C14.941 9.68047 15.5295 10.0479 16.0926 10.4262C16.1386 11.1032 16.1623 11.7965 16.1623 12.5C16.1623 13.2035 16.1386 13.8968 16.0926 14.5738C15.5295 14.9521 14.941 15.3195 14.3313 15.6715C13.7217 16.0234 13.1094 16.3494 12.5002 16.6479C11.8911 16.3495 11.2787 16.0234 10.6692 15.6715C10.0595 15.3195 9.47093 14.9521 8.90784 14.5738C8.8619 13.8968 8.83812 13.2035 8.83812 12.5C8.83812 11.7965 8.8619 11.1032 8.90784 10.4262C9.47093 10.0479 10.0595 9.68052 10.6692 9.32852V9.32852ZM9.09666 8.56226C9.16766 8.04214 9.25291 7.53696 9.35179 7.05005C9.82322 7.20723 10.3039 7.38564 10.7907 7.58418C10.5055 7.7375 10.2207 7.89595 9.93675 8.05991C9.65238 8.22412 9.37235 8.3918 9.09666 8.56226ZM14.2098 7.58418C14.6966 7.38569 15.1772 7.20723 15.6487 7.05005C15.7476 7.53691 15.8328 8.04209 15.9038 8.56226C15.6281 8.3918 15.3481 8.22412 15.0637 8.05996C14.7797 7.89595 14.4949 7.7375 14.2098 7.58418V7.58418ZM17.6123 11.5226C18.0269 11.8444 18.4211 12.1708 18.7924 12.5C18.4211 12.8291 18.0269 13.1556 17.6123 13.4774C17.622 13.1538 17.6272 12.8279 17.6272 12.5C17.6272 12.1721 17.622 11.8462 17.6123 11.5226ZM15.9038 16.4377C15.8327 16.9579 15.7475 17.463 15.6487 17.95C15.1772 17.7928 14.6966 17.6144 14.2098 17.4158C14.4949 17.2625 14.7797 17.1041 15.0637 16.9401C15.3481 16.7759 15.6281 16.6082 15.9038 16.4377V16.4377ZM10.7907 17.4158C10.3039 17.6143 9.82322 17.7928 9.35179 17.95C9.25286 17.4631 9.16766 16.9579 9.09666 16.4377C9.37235 16.6082 9.65238 16.7759 9.93675 16.94C10.2207 17.1041 10.5056 17.2625 10.7907 17.4158V17.4158ZM7.38817 13.4774C6.97357 13.1556 6.57933 12.8292 6.20804 12.5C6.57933 12.1709 6.97357 11.8444 7.38817 11.5226C7.37845 11.8462 7.37327 12.1721 7.37327 12.5C7.37327 12.8279 7.37845 13.1538 7.38817 13.4774ZM12.5002 23.5352C11.1164 23.5352 10.0741 20.7119 9.69637 19.3778C10.6075 19.0794 11.549 18.7072 12.5002 18.2691C13.4514 18.7072 14.393 19.0794 15.3041 19.3778C14.9276 20.7076 13.8852 23.5352 12.5002 23.5352ZM22.0147 17.9932C21.3249 19.1878 18.4024 18.6994 17.0582 18.3629C17.2538 17.4249 17.4013 16.4248 17.4969 15.3843C18.3503 14.7807 19.142 14.1525 19.8549 13.514C20.8204 14.5118 22.7044 16.7985 22.0147 17.9932ZM22.0147 7.00684C22.7042 8.20112 20.8216 10.487 19.8549 11.486C19.142 10.8474 18.3503 10.2193 17.4969 9.61572C17.4013 8.57524 17.2538 7.57515 17.0582 6.63711C18.4576 6.28682 21.3318 5.82417 22.0147 7.00684ZM12.5002 1.46484C13.8841 1.46484 14.9264 4.28809 15.3041 5.62217C14.393 5.92056 13.4514 6.29277 12.5002 6.73086C11.549 6.29277 10.6075 5.92056 9.69637 5.62217C10.0729 4.29233 11.1152 1.46484 12.5002 1.46484V1.46484ZM2.98582 7.00684C3.67254 5.81733 6.56273 6.2918 7.94232 6.63711C7.74666 7.57515 7.59925 8.57524 7.5036 9.61572C6.65023 10.2193 5.85853 10.8475 5.14564 11.486C4.18001 10.4882 2.29608 8.20151 2.98582 7.00684V7.00684Z" fill="white"/>
<path d="M12.5 14.6973C13.7116 14.6973 14.6973 13.7116 14.6973 12.5C14.6973 11.2884 13.7116 10.3027 12.5 10.3027C11.2884 10.3027 10.3027 11.2884 10.3027 12.5C10.3027 13.7116 11.2884 14.6973 12.5 14.6973ZM12.5 11.7676C12.9039 11.7676 13.2324 12.0961 13.2324 12.5C13.2324 12.9039 12.9039 13.2324 12.5 13.2324C12.0961 13.2324 11.7676 12.9039 11.7676 12.5C11.7676 12.0961 12.0961 11.7676 12.5 11.7676Z" fill="white"/>
</svg>
