<svg width="481" height="481" viewBox="0 0 481 481" fill="none" xmlns="http://www.w3.org/2000/svg">
<g clip-path="url(#clip0)">
<path d="M475.922 229.325L331.922 69.3249C328.85 65.9329 324.562 64.0129 320.018 64.0129H224.018C217.714 64.0129 211.986 67.7249 209.394 73.4849C206.834 79.2769 207.89 86.0289 212.114 90.7009L346.482 240.013L212.114 389.293C207.89 393.997 206.802 400.749 209.394 406.509C211.986 412.301 217.714 416.013 224.018 416.013H320.018C324.562 416.013 328.85 414.061 331.922 410.733L475.922 250.733C481.394 244.653 481.394 235.373 475.922 229.325Z" fill="#B6BBB2"/>
<path d="M267.922 229.325L123.922 69.3249C120.85 65.9329 116.562 64.0129 112.018 64.0129H16.018C9.71399 64.0129 3.98599 67.7249 1.39399 73.4849C-1.16601 79.2769 -0.110007 86.0289 4.11399 90.7009L138.482 240.013L4.11399 389.293C-0.110007 393.997 -1.19801 400.749 1.39399 406.509C3.98599 412.301 9.71399 416.013 16.018 416.013H112.018C116.562 416.013 120.85 414.061 123.922 410.733L267.922 250.733C273.394 244.653 273.394 235.373 267.922 229.325Z" fill="#B6BBB2"/>
</g>
<defs>
<clipPath id="clip0">
<rect width="480.026" height="480.026" fill="white"/>
</clipPath>
</defs>
</svg>
