<svg width="481" height="433" viewBox="0 0 481 433" fill="none" xmlns="http://www.w3.org/2000/svg">
<g clip-path="url(#clip0)">
<path d="M475.922 181.325L331.922 21.325C328.85 17.933 324.562 16.013 320.018 16.013H224.018C217.714 16.013 211.986 19.725 209.394 25.485C206.834 31.277 207.89 38.029 212.114 42.701L346.482 192.013L212.114 341.293C207.89 345.997 206.802 352.749 209.394 358.509C211.986 364.301 217.714 368.013 224.018 368.013H320.018C324.562 368.013 328.85 366.061 331.922 362.733L475.922 202.733C481.394 196.653 481.394 187.373 475.922 181.325Z" fill="#F8952C"/>
<path d="M267.922 181.325L123.922 21.325C120.85 17.933 116.562 16.013 112.018 16.013H16.018C9.71399 16.013 3.98599 19.725 1.39399 25.485C-1.16601 31.277 -0.110007 38.029 4.11399 42.701L138.482 192.013L4.11399 341.293C-0.110007 345.997 -1.19801 352.749 1.39399 358.509C3.98599 364.301 9.71399 368.013 16.018 368.013H112.018C116.562 368.013 120.85 366.061 123.922 362.733L267.922 202.733C273.394 196.653 273.394 187.373 267.922 181.325Z" fill="#F8952C"/>
</g>
<defs>
<clipPath id="clip0">
<rect width="480.026" height="480.026" fill="white" transform="translate(0 -48)"/>
</clipPath>
</defs>
</svg>
