<?xml version="1.0" encoding="utf-8"?>
<!-- Generator: Adobe Illustrator 23.0.3, SVG Export Plug-In . SVG Version: 6.00 Build 0)  -->
<svg version="1.1" id="Layer_1" xmlns="http://www.w3.org/2000/svg" xmlns:xlink="http://www.w3.org/1999/xlink" x="0px" y="0px"
	 viewBox="0 0 199.7 52" style="enable-background:new 0 0 199.7 52;" xml:space="preserve">
<style type="text/css">
	.st0{fill:#FFFFFF;}
	.st1{font-family:'Arial-BoldMT';}
	.st2{font-size:36px;}
	.st3{font-family:'ArialMT';}
	.st4{font-size:12px;}
</style>
<path id="Path_1" class="st0" d="M2.6,32l12.9-13c2.2-2.3,4.9,0.8,4.9,0.8l12.2,11.9l5.8-5.3l-13.5-14c0,0-6-7.1-11.1-2.4
	S2.6,21,2.6,21c-1.7,1.4-2.7,3.5-2.6,5.7C0.1,28.7,1.1,30.7,2.6,32z"/>
<path id="Path_2" class="st0" d="M40.6,24l5.3-5L34.4,6.5c0,0-6.7-7.9-10.9-5.6C21,2.1,19.1,4,17.9,6.5c1.7,0.1,3.4,0.4,5,0.9
	c2.1,0.8,8.6,7.2,8.6,7.2C34.3,18,40.6,24,40.6,24z"/>
<path id="Path_3" class="st0" d="M48.3,20.5l-12.9,13c-2.2,2.3-4.9-0.8-4.9-0.8L18.3,20.7L12.5,26l13.5,14c0,0,6,7.1,11.1,2.4
	s11.1-11,11.1-11c1.7-1.4,2.7-3.5,2.6-5.7C50.8,23.7,49.8,21.8,48.3,20.5z"/>
<path id="Path_4" class="st0" d="M10.3,28.5l-5.3,5L16.5,46c0,0,6.7,7.9,10.9,5.6c2.4-1.2,4.4-3.2,5.6-5.6c-1.7-0.1-3.4-0.4-5-0.9
	c-2.1-0.8-8.6-7.2-8.6-7.2C16.6,34.4,10.3,28.5,10.3,28.5z"/>
<text transform="matrix(1 0 0 1 59.672 33)" class="st0 st1 st2">FIONCA</text>
<text transform="matrix(1 0 0 1 60.672 48)" class="st0 st3 st4">INSURANCE COMPANY</text>
</svg>
