<svg width="592" height="672" viewBox="0 0 592 672" fill="none" xmlns="http://www.w3.org/2000/svg">
<path d="M419.938 629.066L406.85 563.608L395.208 505.424C392.953 494.204 382.428 486.618 371.069 488.029L321.693 494.198C311.026 495.584 300.946 488.968 297.976 478.629C291.471 455.816 281.814 430.804 281.863 354.26C281.913 277.717 291.471 252.705 297.976 229.892C300.946 219.553 311.026 212.937 321.692 214.324L371.068 220.493C382.426 221.903 392.951 214.319 395.207 203.097L406.488 146.703L419.938 79.4549C422.228 68.0086 415.125 56.7818 403.802 53.9484L354.168 41.537C340.845 38.0926 326.706 39.9061 314.681 46.6003C275.268 69.0472 205.326 135.568 205.326 354.266C205.326 572.964 275.267 639.473 314.681 661.919C326.705 668.614 340.844 670.428 354.169 666.983L403.801 654.572C415.126 651.738 422.228 640.512 419.938 629.066Z" fill="#F8952C"/>
<path d="M500.85 256.528C558.105 313.911 558.106 406.812 500.85 464.196C497.477 467.569 497.476 473.038 500.85 476.412C504.223 479.785 509.692 479.786 513.066 476.412C577.058 412.278 577.058 308.447 513.066 244.313C509.693 240.94 504.223 240.939 500.85 244.313C497.477 247.685 497.476 253.154 500.85 256.528Z" fill="#F8952C"/>
<path d="M464.203 293.175C501.247 330.307 501.247 390.416 464.203 427.548C460.83 430.921 460.829 436.39 464.203 439.764C467.576 443.137 473.045 443.138 476.419 439.764C520.2 395.882 520.201 324.842 476.419 280.959C473.046 277.586 467.576 277.585 464.203 280.959C460.829 284.332 460.829 289.801 464.203 293.175Z" fill="#F8952C"/>
<path d="M427.555 329.822C444.393 346.701 444.393 374.023 427.555 390.901C424.182 394.274 424.181 399.744 427.555 403.118C430.928 406.491 436.398 406.491 439.771 403.118C463.346 379.489 463.346 341.236 439.771 317.608C436.398 314.235 430.929 314.234 427.555 317.608C424.181 320.98 424.181 326.449 427.555 329.822Z" fill="#F8952C"/>
</svg>
