<svg width="470" height="470" viewBox="0 0 470 470" fill="none" xmlns="http://www.w3.org/2000/svg">
<g clip-path="url(#clip0)">
<path d="M234.667 0C105.271 0 0 114.844 0 256V373.333C0 379.224 4.776 384 10.667 384H42.667V426.667C42.667 450.198 61.802 469.334 85.334 469.334H117.334C123.23 469.334 128.001 464.563 128.001 458.667V266.667C128.001 260.771 123.23 256 117.334 256H85.334C61.803 256 42.667 275.135 42.667 298.667V256C42.667 138.365 128.802 42.667 234.667 42.667C340.532 42.667 426.667 138.365 426.667 256V298.667C426.667 275.135 407.531 256 384 256H352C346.104 256 341.333 260.771 341.333 266.667V458.667C341.333 464.563 346.104 469.334 352 469.334H384C407.531 469.334 426.667 450.199 426.667 426.667V384H458.667C464.558 384 469.334 379.224 469.334 373.333V256C469.333 114.844 364.063 0 234.667 0Z" fill="#204669"/>
</g>
<defs>
<clipPath id="clip0">
<rect width="469.333" height="469.333" fill="white"/>
</clipPath>
</defs>
</svg>
