<svg width="976" height="976" viewBox="0 0 976 976" fill="none" xmlns="http://www.w3.org/2000/svg">
<g clip-path="url(#clip0)">
<path d="M925.036 57.197H621.036C593.436 57.197 571.036 79.597 571.036 107.197V411.197C571.036 438.798 593.436 461.197 621.036 461.197H766.536C764.636 540.798 746.136 604.497 711.136 652.397C683.536 690.197 641.737 721.497 585.836 746.197C560.136 757.497 549.036 787.897 561.036 813.298L597.036 889.298C608.636 913.697 637.336 924.398 662.136 913.697C728.336 885.097 784.237 848.897 829.836 804.897C885.437 751.197 923.536 690.597 944.136 622.997C964.737 555.397 975.036 463.197 975.036 346.197V107.197C975.036 79.598 952.635 57.197 925.036 57.197Z" fill="#E4ECF3"/>
<path d="M106.036 913.497C171.436 884.997 227.036 848.798 272.936 804.897C329.036 751.197 367.336 690.797 387.936 623.697C408.536 556.597 418.835 464.097 418.835 346.197V107.197C418.835 79.597 396.436 57.197 368.835 57.197H64.8349C37.2349 57.197 14.8349 79.597 14.8349 107.197V411.197C14.8349 438.798 37.2349 461.197 64.8349 461.197H210.335C208.435 540.798 189.935 604.497 154.935 652.397C127.335 690.197 85.5349 721.497 29.6349 746.197C3.93488 757.497 -7.16512 787.897 4.83488 813.298L40.7349 889.098C52.3359 913.497 81.2359 924.298 106.036 913.497Z" fill="#E4ECF3"/>
</g>
<defs>
<clipPath id="clip0">
<rect width="975.036" height="975.036" fill="white"/>
</clipPath>
</defs>
</svg>
