<svg width="512" height="512" viewBox="0 0 512 512" fill="none" xmlns="http://www.w3.org/2000/svg">
<path d="M32 168H16V136C16.0119 125.395 20.23 115.228 27.7289 107.729C35.2278 100.23 45.395 96.012 56 96H328V80H312C310.418 80.0001 308.871 79.5309 307.555 78.6519C306.24 77.7728 305.214 76.5234 304.609 75.0616C304.003 73.5997 303.845 71.9911 304.153 70.4392C304.462 68.8874 305.224 67.4619 306.343 66.343L354.343 18.343C355.086 17.6001 355.968 17.0108 356.938 16.6088C357.909 16.2067 358.949 15.9998 360 15.9998C361.051 15.9998 362.091 16.2067 363.062 16.6088C364.032 17.0108 364.914 17.6001 365.657 18.343L413.657 66.343C414.776 67.4619 415.538 68.8874 415.847 70.4392C416.155 71.9911 415.997 73.5997 415.391 75.0616C414.786 76.5234 413.76 77.7728 412.445 78.6519C411.129 79.5309 409.582 80.0001 408 80H392V96H424C434.605 96.012 444.772 100.23 452.271 107.729C459.77 115.228 463.988 125.395 464 136V296H448V136C447.993 129.637 445.462 123.537 440.962 119.038C436.463 114.538 430.363 112.007 424 112H392V256H376V72C376 69.8783 376.843 67.8435 378.343 66.3432C379.843 64.8429 381.878 64 384 64H388.687L360 35.313L331.313 64H336C338.122 64 340.157 64.8429 341.657 66.3432C343.157 67.8435 344 69.8783 344 72V264H328V112H56C49.6371 112.007 43.5369 114.538 39.0376 119.038C34.5384 123.537 32.0074 129.637 32 136V168ZM56 416H189.247L170.047 480H152V496H328V480H309.953L299.663 445.7L284.337 450.3L293.248 480H186.748L205.948 416H264V400H56C49.6371 399.993 43.5369 397.462 39.0376 392.962C34.5384 388.463 32.0074 382.363 32 376V368H256V352H32V184H16V376C16.0119 386.605 20.23 396.772 27.7289 404.271C35.2278 411.77 45.395 415.988 56 416V416ZM296 280V152H264V336H56V320H88V256C88 253.878 88.8429 251.843 90.3431 250.343C91.8434 248.843 93.8783 248 96 248H144C146.122 248 148.157 248.843 149.657 250.343C151.157 251.843 152 253.878 152 256V320H168V200C168 197.878 168.843 195.843 170.343 194.343C171.843 192.843 173.878 192 176 192H224C226.122 192 228.157 192.843 229.657 194.343C231.157 195.843 232 197.878 232 200V320H248V144C248 141.878 248.843 139.843 250.343 138.343C251.843 136.843 253.878 136 256 136H304C306.122 136 308.157 136.843 309.657 138.343C311.157 139.843 312 141.878 312 144V280H296ZM136 264H104V320H136V264ZM216 208H184V320H216V208ZM56 128V144H72V128H56ZM104 128H88V144H104V128ZM120 128V144H136V128H120ZM488.967 455.033C493.453 459.543 495.98 465.639 496 472C496.003 475.153 495.384 478.275 494.179 481.188C492.974 484.101 491.206 486.748 488.977 488.977C486.748 491.206 484.101 492.974 481.188 494.179C478.275 495.384 475.153 496.003 472 496C465.646 495.945 459.563 493.423 455.033 488.967L416.74 450.675C396.598 462.557 372.813 466.684 349.845 462.283C326.877 457.882 306.303 445.255 291.98 426.768C277.657 408.282 270.568 385.206 272.043 361.867C273.518 338.528 283.455 316.528 299.991 299.991C316.528 283.455 338.528 273.518 361.867 272.043C385.206 270.568 408.282 277.657 426.768 291.98C445.255 306.303 457.882 326.877 462.283 349.845C466.684 372.813 462.557 396.598 450.675 416.74L488.967 455.033ZM448 368C448 352.178 443.308 336.71 434.518 323.554C425.727 310.399 413.233 300.145 398.615 294.09C383.997 288.035 367.911 286.45 352.393 289.537C336.874 292.624 322.62 300.243 311.431 311.432C300.243 322.62 292.624 336.874 289.537 352.393C286.45 367.911 288.035 383.997 294.09 398.615C300.145 413.233 310.398 425.727 323.554 434.518C336.71 443.308 352.177 448 368 448C389.21 447.976 409.544 439.54 424.542 424.542C439.54 409.544 447.976 389.21 448 368V368ZM477.652 466.348L441.265 429.959C437.814 434.033 434.033 437.814 429.959 441.265L466.348 477.652C467.083 478.426 467.965 479.045 468.943 479.472C469.92 479.9 470.974 480.127 472.041 480.141C473.108 480.155 474.167 479.955 475.156 479.553C476.144 479.151 477.042 478.555 477.797 477.801C478.551 477.046 479.147 476.148 479.549 475.16C479.951 474.171 480.151 473.112 480.137 472.045C480.123 470.978 479.896 469.925 479.468 468.947C479.041 467.969 478.422 467.087 477.648 466.352L477.652 466.348ZM432 368C432 380.658 428.246 393.032 421.214 403.557C414.182 414.081 404.186 422.284 392.492 427.128C380.797 431.972 367.929 433.24 355.514 430.77C343.099 428.301 331.696 422.205 322.745 413.255C313.795 404.304 307.699 392.901 305.23 380.486C302.76 368.071 304.028 355.203 308.872 343.508C313.716 331.814 321.919 321.818 332.444 314.786C342.968 307.754 355.342 304 368 304C384.968 304.019 401.236 310.768 413.234 322.766C425.232 334.764 431.981 351.032 432 368V368ZM416 368C416 358.507 413.185 349.226 407.911 341.333C402.636 333.439 395.14 327.287 386.369 323.654C377.598 320.021 367.947 319.07 358.636 320.922C349.325 322.774 340.772 327.346 334.059 334.059C327.346 340.772 322.774 349.325 320.922 358.636C319.07 367.947 320.021 377.598 323.654 386.369C327.287 395.14 333.439 402.636 341.333 407.911C349.226 413.185 358.506 416 368 416C380.726 415.986 392.927 410.924 401.926 401.926C410.924 392.927 415.986 380.726 416 368ZM336 368H352C352.005 363.758 353.692 359.691 356.692 356.692C359.691 353.692 363.758 352.005 368 352V336C359.516 336.01 351.382 339.384 345.383 345.383C339.384 351.382 336.01 359.516 336 368ZM440 64H456C455.986 51.274 450.924 39.0731 441.926 30.0744C432.927 21.0757 420.726 16.0141 408 16V32C416.484 32.0096 424.618 35.3841 430.617 41.3832C436.616 47.3823 439.99 55.516 440 64Z" fill="#3482CA"/>
</svg>
