<?xml version="1.0" encoding="utf-8"?>
<!-- Generator: Adobe Illustrator 23.0.3, SVG Export Plug-In . SVG Version: 6.00 Build 0)  -->
<svg version="1.1" id="Layer_1" xmlns="http://www.w3.org/2000/svg" xmlns:xlink="http://www.w3.org/1999/xlink" x="0px" y="0px"
	 viewBox="0 0 25 25" style="enable-background:new 0 0 25 25;" xml:space="preserve">
<style type="text/css">
	.st0{fill:#666666;}
</style>
<path class="st0" d="M12.3,12c1.7,0,3.1-0.6,4.3-1.8c1.2-1.2,1.8-2.6,1.8-4.3c0-1.7-0.6-3.1-1.8-4.3C15.4,0.6,14,0,12.3,0
	c-1.7,0-3.1,0.6-4.3,1.8C6.9,2.9,6.3,4.4,6.3,6c0,1.7,0.6,3.1,1.8,4.3C9.2,11.4,10.7,12,12.3,12L12.3,12z M9.1,2.8
	c0.9-0.9,2-1.3,3.2-1.3c1.3,0,2.3,0.4,3.2,1.3c0.9,0.9,1.3,2,1.3,3.2c0,1.3-0.4,2.3-1.3,3.2c-0.9,0.9-2,1.3-3.2,1.3
	c-1.3,0-2.3-0.4-3.2-1.3C8.2,8.3,7.8,7.3,7.8,6C7.8,4.8,8.2,3.7,9.1,2.8z"/>
<path class="st0" d="M22.9,19.2c0-0.5-0.1-1-0.2-1.6c-0.1-0.6-0.2-1.1-0.4-1.6c-0.2-0.5-0.4-1-0.7-1.5c-0.3-0.5-0.6-0.9-1-1.3
	c-0.4-0.4-0.9-0.7-1.4-0.9c-0.5-0.2-1.2-0.3-1.8-0.3c-0.3,0-0.5,0.1-1,0.4c-0.3,0.2-0.6,0.4-1,0.7c-0.3,0.2-0.8,0.4-1.3,0.6
	C13.6,13.9,13,14,12.5,14c-0.5,0-1.1-0.1-1.6-0.3c-0.5-0.2-1-0.4-1.3-0.6c-0.4-0.2-0.7-0.5-1-0.7c-0.5-0.3-0.7-0.4-1-0.4
	c-0.7,0-1.3,0.1-1.8,0.3c-0.5,0.2-1,0.5-1.4,0.9c-0.4,0.4-0.7,0.8-1,1.3c-0.3,0.5-0.5,1-0.7,1.5c-0.2,0.5-0.3,1-0.4,1.6
	c-0.1,0.6-0.2,1.1-0.2,1.6c0,0.5,0,1,0,1.5c0,1.3,0.4,2.4,1.2,3.1C4.1,24.6,5.2,25,6.5,25h12c1.3,0,2.4-0.4,3.2-1.2
	c0.8-0.8,1.2-1.8,1.2-3.1C22.9,20.2,22.9,19.7,22.9,19.2L22.9,19.2z M20.7,22.8c-0.5,0.5-1.2,0.8-2.2,0.8h-12
	c-0.9,0-1.6-0.2-2.2-0.8c-0.5-0.5-0.8-1.2-0.8-2.1c0-0.5,0-0.9,0-1.4c0-0.4,0.1-0.9,0.2-1.4c0.1-0.5,0.2-1,0.3-1.4
	c0.1-0.4,0.3-0.8,0.5-1.2c0.2-0.4,0.5-0.7,0.7-0.9c0.3-0.2,0.6-0.4,0.9-0.6c0.3-0.1,0.7-0.2,1.2-0.2c0.1,0,0.1,0.1,0.3,0.2
	c0.3,0.2,0.6,0.4,1,0.7c0.4,0.3,1,0.5,1.7,0.7c0.7,0.2,1.4,0.3,2.1,0.3s1.4-0.1,2.1-0.3c0.7-0.2,1.2-0.5,1.7-0.7
	c0.4-0.3,0.7-0.5,1-0.7c0.1-0.1,0.2-0.1,0.3-0.2c0.4,0,0.8,0.1,1.2,0.2c0.4,0.1,0.7,0.3,0.9,0.6c0.3,0.3,0.5,0.6,0.7,0.9
	c0.2,0.4,0.4,0.8,0.5,1.2c0.1,0.4,0.3,0.9,0.3,1.4c0.1,0.5,0.2,1,0.2,1.4v0c0,0.4,0,0.9,0,1.4C21.4,21.6,21.2,22.3,20.7,22.8
	L20.7,22.8z"/>
</svg>
